<?xml version="1.0" standalone="no"?>
<!DOCTYPE svg PUBLIC "-//W3C//DTD SVG 20010904//EN"
 "http://www.w3.org/TR/2001/REC-SVG-20010904/DTD/svg10.dtd">
<svg version="1.0" xmlns="http://www.w3.org/2000/svg"
 width="256.000000pt" height="256.000000pt" viewBox="0 0 256.000000 256.000000"
 preserveAspectRatio="xMidYMid meet">

<g transform="translate(0.000000,256.000000) scale(0.100000,-0.100000)"
fill="#fff" stroke="none">
<path d="M65 2495 l-25 -24 0 -311 0 -311 25 -24 c21 -22 33 -25 95 -25 62 0
74 3 95 25 23 22 25 32 25 120 l0 95 40 0 c37 0 40 -2 60 -47 12 -26 30 -57
40 -68 18 -19 19 -43 22 -445 l3 -425 25 -50 c35 -71 105 -138 171 -162 32
-12 103 -25 175 -31 71 -6 148 -20 185 -32 63 -22 154 -24 215 -5 16 5 22 0
31 -27 6 -18 24 -62 39 -98 27 -63 29 -73 34 -280 6 -244 12 -265 86 -308 34
-20 48 -22 109 -18 59 4 88 14 185 62 63 31 241 101 394 155 156 56 294 110
313 124 122 94 147 246 63 378 -27 43 -30 56 -30 131 0 158 -50 291 -148 397
-95 104 -212 157 -316 145 -28 -3 -62 -7 -75 -8 -18 -2 -29 5 -43 29 l-19 31
58 16 c100 27 198 82 253 143 123 135 160 309 100 468 -32 84 -131 183 -215
215 -191 72 -394 0 -495 -176 -36 -62 -54 -78 -105 -93 -63 -19 -86 -33 -101
-63 -18 -35 -18 -62 2 -104 15 -31 15 -37 -1 -85 -42 -125 22 -268 139 -310
22 -8 36 -20 36 -30 0 -27 -79 -109 -105 -109 -13 0 -34 -4 -47 -9 -17 -7 -44
-2 -98 17 -119 41 -274 36 -405 -14 -13 -5 -15 26 -15 276 l0 281 29 42 c15
23 31 52 35 65 6 18 14 22 52 22 l44 0 0 -95 c0 -88 2 -98 25 -120 21 -22 33
-25 95 -25 62 0 74 3 95 25 l25 24 0 311 0 311 -25 24 c-21 22 -33 25 -95 25
-62 0 -74 -3 -95 -25 -23 -22 -25 -32 -25 -120 l0 -95 -40 0 -40 0 0 55 c0 46
-4 60 -25 80 -41 42 -126 27 -175 -31 l-25 -29 -133 0 -134 0 -34 -37 c-29
-32 -41 -38 -74 -38 l-40 0 0 95 c0 88 -2 98 -25 120 -21 22 -33 25 -95 25
-62 0 -74 -3 -95 -25z m130 -335 l0 -275 -35 0 -35 0 -3 265 c-1 146 0 271 3
278 3 8 17 12 37 10 l33 -3 0 -275z m960 0 l0 -275 -35 0 -35 0 -3 265 c-1
146 0 271 3 278 3 8 17 12 37 10 l33 -3 0 -275z m-317 47 l-3 -154 -38 -61
-38 -62 3 -332 c3 -296 5 -338 21 -375 l19 -42 35 17 c30 14 34 20 29 43 -4
23 0 28 37 43 102 40 237 43 330 7 27 -10 27 -11 13 -44 -31 -76 -48 -181 -44
-287 3 -104 3 -104 -22 -111 -43 -12 -94 -10 -150 7 -41 12 -66 29 -107 70
-55 57 -69 60 -103 19 -11 -13 -10 -19 6 -36 l19 -21 -60 7 c-111 13 -137 23
-191 79 -36 37 -54 65 -62 98 -8 32 -12 177 -12 456 0 403 0 409 -21 428 -19
17 -49 65 -49 79 0 3 50 5 111 5 167 0 199 27 199 169 0 44 5 91 11 105 10 21
40 43 62 45 5 1 7 -68 5 -152z m-170 61 c7 -7 12 -37 12 -68 0 -31 -5 -61 -12
-68 -8 -8 -47 -12 -108 -12 -61 0 -100 4 -108 12 -7 7 -12 37 -12 68 0 31 5
61 12 68 8 8 47 12 108 12 61 0 100 -4 108 -12z m1357 -30 c100 -52 155 -139
163 -254 11 -175 -100 -330 -276 -383 l-62 -19 0 42 c0 37 6 47 50 91 55 54
75 99 65 145 -9 42 -49 86 -88 99 -27 9 -35 19 -44 54 -15 54 -72 121 -123
143 -22 10 -40 21 -40 25 0 12 58 50 108 70 68 28 179 21 247 -13z m-1665 -78
l0 -40 -40 0 -40 0 0 40 0 40 40 0 40 0 0 -40z m640 0 l0 -40 -40 0 -40 0 0
40 0 40 40 0 40 0 0 -40z m669 -83 c55 -28 91 -89 91 -154 l0 -43 44 0 c46 0
76 -18 76 -47 0 -8 -27 -43 -60 -77 l-60 -63 0 -107 c0 -109 12 -160 47 -198
15 -17 15 -20 -4 -41 -11 -12 -42 -57 -68 -101 -58 -93 -78 -114 -120 -122
-77 -14 -135 45 -135 137 0 35 7 49 48 94 27 29 53 68 58 86 9 31 13 34 52 37
42 3 42 3 42 43 l0 39 -73 0 c-96 0 -151 27 -184 90 -28 52 -28 88 -3 160 25
70 25 79 -1 106 -30 32 -19 50 43 68 53 15 94 46 124 91 20 30 27 31 83 2z
m419 -738 c33 -11 35 -29 3 -29 -36 0 -140 -62 -186 -111 -25 -27 -58 -75 -73
-107 -23 -49 -27 -70 -27 -152 0 -82 4 -103 27 -153 15 -33 50 -79 79 -108 52
-51 52 -51 32 -68 -12 -9 -60 -49 -107 -89 l-86 -74 -51 17 c-80 27 -134 17
-181 -34 -21 -22 -57 -50 -78 -61 l-40 -20 0 112 c0 101 -4 122 -31 198 -17
47 -43 117 -57 155 -61 167 -13 455 75 455 8 0 13 -14 13 -40 0 -53 20 -98 61
-137 42 -39 77 -53 134 -53 91 0 126 28 220 175 63 98 84 120 135 136 28 9 88
4 138 -12z m186 -151 c57 -84 78 -156 84 -288 4 -110 6 -118 39 -172 59 -96
54 -187 -15 -256 -33 -33 -68 -48 -292 -126 -140 -48 -316 -117 -390 -152 -87
-42 -154 -67 -187 -71 -48 -5 -54 -4 -82 25 -55 55 -36 104 59 152 38 19 65
41 75 59 21 42 45 46 129 21 88 -26 58 -41 264 135 l151 129 -62 39 c-83 52
-104 73 -135 132 -36 67 -37 177 -3 247 53 110 156 174 282 177 45 1 48 0 83
-51z"/>
</g>
</svg>
